<svg width="1604.357421875px" height="164.03251953125px" xmlns="http://www.w3.org/2000/svg" viewBox="-552.1787109375 -7.016259765624994 1604.357421875 164.03251953125" style="background: rgba(0, 0, 0, 0);" preserveAspectRatio="xMidYMid"><defs><linearGradient id="editing-outline-gradient" x1="-0.41354545764260087" x2="1.4135454576426008" y1="0.09326335692419985" y2="0.9067366430758002"><stop offset="0" stop-color="#000000"></stop><stop offset="1" stop-color="#000000"></stop></linearGradient><filter id="editing-outline" x="-100%" y="-100%" width="300%" height="300%"><feMorphology in="SourceGraphic" operator="dilate" radius="1" result="outline"></feMorphology><feComposite operator="out" in="outline" in2="SourceAlpha"></feComposite></filter></defs><g filter="url(#editing-outline)"><g transform="translate(-329.1175000667572, 111.62000274658203)"><path d="M15.34-54.54L15.34-49.98L17.35-50.05L17.35-50.05Q27.34-50.05 33.43-46.63L33.43-46.63L33.43-46.63Q39.53-43.22 39.53-36.92L39.53-36.92L39.53-36.92Q39.53-32.23 37.19-29.41L37.19-29.41L37.19-29.41Q35.18-26.93 33.57-26.13L33.57-26.13L32.90-25.73L32.90-25.73Q34.04-25.53 36.01-24.42L36.01-24.42L36.01-24.42Q37.99-23.32 39.26-22.01L39.26-22.01L39.26-22.01Q40.54-20.70 41.61-18.22L41.61-18.22L41.61-18.22Q42.68-15.75 42.68-12.73L42.68-12.73L42.68-12.73Q42.68-4.76 35.98-0.60L35.98-0.60L35.98-0.60Q29.28 3.55 16.62 3.55L16.62 3.55L16.62 3.55Q7.50 3.55 1.84-0.87L1.84-0.87L1.84-0.87Q-3.82-5.29-3.82-10.92L-3.82-10.92L-3.82-10.92Q-3.82-11.86-3.25-12.46L-3.25-12.46L-3.25-12.46Q-2.68-13.07-1.91-13.07L-1.91-13.07L-1.91-13.07Q-1.14-13.07-0.74-12.66L-0.74-12.66L-0.74-12.66Q-0.74-8.51 2.01-5.43L2.01-5.43L2.01-5.43Q4.76-2.35 9.31-0.87L9.31-0.87L9.31-44.69L9.31-44.69Q6.37-43.35 4.56-41.51L4.56-41.51L4.56-41.51Q2.75-39.66 2.75-37.99L2.75-37.99L2.75-37.99Q2.75-36.31 3.15-35.11L3.15-35.11L3.15-35.11Q2.75-34.30 1.34-34.30L1.34-34.30L1.34-34.30Q-0.07-34.30-1.07-35.31L-1.07-35.31L-1.07-35.31Q-2.08-36.31-2.08-37.99L-2.08-37.99L-2.08-37.99Q-2.08-41.14 1.07-44.22L1.07-44.22L1.07-44.22Q4.22-47.30 9.31-48.84L9.31-48.84L9.31-51.39L9.31-51.39Q9.31-53.40 10.32-54.44L10.32-54.44L10.32-54.44Q11.32-55.48 12.80-55.48L12.80-55.48L12.80-55.48Q14.27-55.48 15.34-54.54L15.34-54.54ZM15.61 0.20L16.62 0.20L16.62 0.20Q26.60 0.20 31.56-2.95L31.56-2.95L31.56-2.95Q36.52-6.10 36.52-12.73L36.52-12.73L36.52-12.73Q36.52-24.12 21.24-24.12L21.24-24.12L21.24-24.12Q20.57-24.12 20.10-24.72L20.10-24.72L20.10-24.72Q19.63-25.33 19.63-26.33L19.63-26.33L19.63-26.33Q19.63-27.60 21.24-27.60L21.24-27.60L21.24-27.60Q28.74-27.60 31.29-30.69L31.29-30.69L31.29-30.69Q33.37-33.16 33.37-36.92L33.37-36.92L33.37-36.92Q33.37-41.67 28.98-44.19L28.98-44.19L28.98-44.19Q24.59-46.70 17.69-46.77L17.69-46.77L17.69-46.77Q16.42-46.77 15.61-46.57L15.61-46.57L15.61 0.20ZM70.89-28.34L70.89-28.34L70.89-28.34Q71.76-30.28 73.67-30.28L73.67-30.28L73.67-30.28Q75.58-30.28 76.51-29.35L76.51-29.35L76.51-10.12L76.51-10.12Q76.51-6.30 77.72-4.36L77.72-4.36L77.72-4.36Q78.93-2.41 81.00-2.41L81.00-2.41L81.00-2.41Q87.30-2.41 87.30-15.48L87.30-15.48L87.30-15.48Q87.37-15.88 88.31-15.88L88.31-15.88L88.31-15.88Q89.51-15.88 89.51-12.33L89.51-12.33L89.51-12.33Q89.51-6.63 87.07-3.22L87.07-3.22L87.07-3.22Q84.62 0.20 80.20 0.20L80.20 0.20L80.20 0.20Q73.43 0.20 71.22-5.76L71.22-5.76L71.22-5.76Q69.95-3.02 67.74-1.41L67.74-1.41L67.74-1.41Q65.53 0.20 62.71 0.20L62.71 0.20L62.71 0.20Q50.99 0.20 50.99-15.14L50.99-15.14L50.99-15.14Q50.99-22.91 54.64-26.60L54.64-26.60L54.64-26.60Q58.29-30.28 64.32-30.28L64.32-30.28L64.32-30.28Q68.94-30.28 70.89-28.34ZM58.29-6.90L58.29-6.90L58.29-6.90Q59.23-3.95 60.43-3.18L60.43-3.18L60.43-3.18Q61.64-2.41 63.65-2.41L63.65-2.41L63.65-2.41Q65.66-2.41 68.04-4.92L68.04-4.92L68.04-4.92Q70.42-7.44 70.42-11.46L70.42-11.46L70.42-20.64L70.42-20.64Q70.42-23.79 68.78-25.73L68.78-25.73L68.78-25.73Q67.13-27.67 65.09-27.67L65.09-27.67L65.09-27.67Q63.05-27.67 61.84-27.27L61.84-27.27L61.84-27.27Q60.64-26.87 59.56-25.59L59.56-25.59L59.56-25.59Q57.35-23.18 57.35-15.14L57.35-15.14L57.35-15.14Q57.35-9.85 58.29-6.90ZM107.13-15.88L107.13-15.88L107.13-15.88Q108.34-15.88 108.34-12.33L108.34-12.33L108.34-12.33Q108.34-7.17 105.53-3.48L105.53-3.48L105.53-3.48Q102.71 0.20 98.36 0.20L98.36 0.20L98.36 0.20Q92.93 0.20 90.25-3.02L90.25-3.02L90.25-3.02Q87.57-6.23 87.57-12.13L87.57-12.13L87.57-37.32L87.57-37.32Q87.57-45.96 89.38-49.98L89.38-49.98L89.38-49.98Q91.19-54.00 95.74-54.00L95.74-54.00L95.74-54.00Q102.38-54.00 102.38-45.02L102.38-45.02L102.38-45.02Q102.38-38.26 99.73-34.17L99.73-34.17L99.73-34.17Q97.08-30.08 93.67-28.07L93.67-28.07L93.67-10.12L93.67-10.12Q93.67-6.30 95.14-4.36L95.14-4.36L95.14-4.36Q96.61-2.41 99.16-2.41L99.16-2.41L99.16-2.41Q101.71-2.41 103.92-5.49L103.92-5.49L103.92-5.49Q106.13-8.58 106.13-15.48L106.13-15.48L106.13-15.48Q106.26-15.88 107.13-15.88ZM99.50-44.96L99.50-44.96L99.50-44.96Q99.50-51.39 96.28-51.39L96.28-51.39L96.28-51.39Q95.48-51.39 95.04-50.85L95.04-50.85L95.04-50.85Q94.60-50.32 94.27-48.17L94.27-48.17L94.27-48.17Q93.67-44.89 93.67-30.89L93.67-30.89L93.67-30.89Q99.50-35.11 99.50-44.96ZM106.13-36.11L106.13-36.11Q106.13-38.12 107.13-39.16L107.13-39.16L107.13-39.16Q108.14-40.20 109.68-40.20L109.68-40.20L109.68-40.20Q111.22-40.20 112.16-39.26L112.16-39.26L112.16-29.35L121.34-29.35L121.34-29.35Q122.74-29.35 123.18-28.81L123.18-28.81L123.18-28.81Q123.62-28.27 123.62-27.00L123.62-27.00L112.16-27.00L112.16-10.12L112.16-10.12Q112.16-6.43 114.27-4.42L114.27-4.42L114.27-4.42Q116.38-2.41 119.13-2.41L119.13-2.41L119.13-2.41Q123.28-2.41 125.22-5.49L125.22-5.49L125.22-5.49Q127.17-8.58 127.17-15.48L127.17-15.48L127.17-15.48Q127.30-15.88 128.17-15.88L128.17-15.88L128.17-15.88Q129.38-15.88 129.38-12.33L129.38-12.33L129.38-12.33Q129.38-6.90 126.66-3.35L126.66-3.35L126.66-3.35Q123.95 0.20 118.32 0.20L118.32 0.20L118.32 0.20Q112.69 0.20 109.41-2.75L109.41-2.75L109.41-2.75Q106.13-5.70 106.13-11.52L106.13-11.52L106.13-36.11ZM127.77-36.85L127.77-36.85L127.77-36.85Q126.63-37.99 126.63-39.66L126.63-39.66L126.63-39.66Q126.63-41.34 127.77-42.51L127.77-42.51L127.77-42.51Q128.91-43.68 130.58-43.68L130.58-43.68L130.58-43.68Q132.26-43.68 133.43-42.51L133.43-42.51L133.43-42.51Q134.60-41.34 134.60-39.66L134.60-39.66L134.60-39.66Q134.60-37.99 133.43-36.85L133.43-36.85L133.43-36.85Q132.26-35.71 130.58-35.71L130.58-35.71L130.58-35.71Q128.91-35.71 127.77-36.85ZM127.50-26.20L127.50-26.20Q127.50-28.21 128.51-29.25L128.51-29.25L128.51-29.25Q129.51-30.28 131.05-30.28L131.05-30.28L131.05-30.28Q132.59-30.28 133.53-29.35L133.53-29.35L133.53-10.12L133.53-10.12Q133.53-6.30 135.00-4.36L135.00-4.36L135.00-4.36Q136.48-2.41 139.03-2.41L139.03-2.41L139.03-2.41Q141.57-2.41 143.78-5.49L143.78-5.49L143.78-5.49Q145.99-8.58 145.99-15.48L145.99-15.48L145.99-15.48Q146.13-15.88 147.00-15.88L147.00-15.88L147.00-15.88Q148.20-15.88 148.20-12.33L148.20-12.33L148.20-12.33Q148.20-7.17 145.39-3.48L145.39-3.48L145.39-3.48Q142.58 0.20 138.22 0.20L138.22 0.20L138.22 0.20Q132.79 0.20 130.15-3.02L130.15-3.02L130.15-3.02Q127.50-6.23 127.50-12.13L127.50-12.13L127.50-26.20ZM174.20-13.74L174.20-13.74L174.20-13.74Q175.61-13.74 175.61-11.79L175.61-11.79L175.61-11.79Q175.61-9.85 174.80-7.91L174.80-7.91L174.80-7.91Q174.00-5.96 172.49-4.09L172.49-4.09L172.49-4.09Q170.98-2.21 168.27-1.01L168.27-1.01L168.27-1.01Q165.56 0.20 162.14 0.20L162.14 0.20L162.14 0.20Q154.64 0.20 150.38-3.58L150.38-3.58L150.38-3.58Q146.13-7.37 146.13-14.71L146.13-14.71L146.13-14.71Q146.13-22.04 149.88-26.16L149.88-26.16L149.88-26.16Q153.63-30.28 159.46-30.28L159.46-30.28L159.46-30.28Q163.68-30.28 165.62-28.04L165.62-28.04L165.62-28.04Q167.57-25.80 167.57-22.71L167.57-22.71L167.57-22.71Q167.57-21.04 166.56-20.03L166.56-20.03L166.56-20.03Q165.56-19.03 164.62-19.03L164.62-19.03L164.62-19.03Q162.88-19.03 162.34-19.83L162.34-19.83L162.34-19.83Q162.74-20.84 162.74-22.71L162.74-22.71L162.74-22.71Q162.74-24.59 161.47-26.13L161.47-26.13L161.47-26.13Q160.20-27.67 158.39-27.67L158.39-27.67L158.39-27.67Q155.24-27.67 153.87-24.59L153.87-24.59L153.87-24.59Q152.49-21.51 152.49-14.91L152.49-14.91L152.49-14.91Q152.49-8.31 155.07-5.36L155.07-5.36L155.07-5.36Q157.65-2.41 162.27-2.41L162.27-2.41L162.27-2.41Q166.90-2.41 170.05-5.26L170.05-5.26L170.05-5.26Q173.20-8.11 173.20-13.33L173.20-13.33L173.20-13.33Q173.26-13.74 174.20-13.74ZM179.16 7.57L179.16 7.57Q178.29 7.57 177.65 7.20L177.65 7.20L177.65 7.20Q177.01 6.83 177.01 6.20L177.01 6.20L177.01 6.20Q177.01 5.56 177.48 5.23L177.48 5.23L177.48 5.23Q179.36 5.23 180.43 3.99L180.43 3.99L180.43 3.99Q181.50 2.75 181.50 1.24L181.50 1.24L181.50 1.24Q181.50-0.27 181.30-1.07L181.30-1.07L181.30-1.07Q180.43 0.13 178.92 0.13L178.92 0.13L178.92 0.13Q177.42 0.13 176.51-0.80L176.51-0.80L176.51-0.80Q175.61-1.74 175.61-3.05L175.61-3.05L175.61-3.05Q175.61-4.36 176.51-5.29L176.51-5.29L176.51-5.29Q177.42-6.23 178.76-6.23L178.76-6.23L178.82-6.23L178.82-6.23Q181.24-6.23 182.71-4.56L182.71-4.56L182.71-4.56Q184.18-2.88 184.18 0.30L184.18 0.30L184.18 0.30Q184.18 3.48 182.71 5.53L182.71 5.53L182.71 5.53Q181.24 7.57 179.16 7.57L179.16 7.57ZM220.03-24.19L220.03-24.19L220.03-24.19Q220.03-25.06 220.63-25.66L220.63-25.66L225.59-25.66L225.59-43.42L220.16-43.42L220.16-43.42Q217.75-43.42 217.75-45.36L217.75-45.36L217.75-45.36Q217.75-46.23 218.35-46.83L218.35-46.83L253.80-46.90L253.80-46.90Q254.94-46.90 255.57-46.33L255.57-46.33L255.57-46.33Q256.21-45.76 256.21-44.89L256.21-44.89L256.21-44.89Q256.21-44.02 255.61-43.42L255.61-43.42L231.62-43.42L231.62-25.73L246.43-25.73L246.43-25.73Q247.56-25.73 248.20-25.16L248.20-25.16L248.20-25.16Q248.84-24.59 248.84-23.72L248.84-23.72L248.84-23.72Q248.84-22.85 248.24-22.24L248.24-22.24L231.62-22.24L231.62-8.11L231.62-8.11Q231.62 0.54 229.81 4.56L229.81 4.56L229.81 4.56Q228.00 8.58 223.18 8.58L223.18 8.58L223.18 8.58Q220.63 8.58 219.22 6.43L219.22 6.43L219.22 6.43Q217.82 4.29 217.82 0.34L217.82 0.34L217.82 0.34Q217.82-7.10 225.59-14.54L225.59-14.54L225.59-22.24L222.44-22.24L222.44-22.24Q220.03-22.24 220.03-24.19ZM223.11 5.96L223.11 5.96L223.11 5.96Q224.52 5.96 225.02 3.18L225.02 3.18L225.02 3.18Q225.52 0.40 225.59-7.57L225.59-7.57L225.59-11.46L225.59-11.46Q220.70-5.49 220.70 0.23L220.70 0.23L220.70 0.23Q220.70 5.96 223.11 5.96ZM250.91-36.85L250.91-36.85L250.91-36.85Q249.78-37.99 249.78-39.66L249.78-39.66L249.78-39.66Q249.78-41.34 250.91-42.51L250.91-42.51L250.91-42.51Q252.05-43.68 253.73-43.68L253.73-43.68L253.73-43.68Q255.40-43.68 256.58-42.51L256.58-42.51L256.58-42.51Q257.75-41.34 257.75-39.66L257.75-39.66L257.75-39.66Q257.75-37.99 256.58-36.85L256.58-36.85L256.58-36.85Q255.40-35.71 253.73-35.71L253.73-35.71L253.73-35.71Q252.05-35.71 250.91-36.85ZM250.65-26.20L250.65-26.20Q250.65-28.21 251.65-29.25L251.65-29.25L251.65-29.25Q252.66-30.28 254.20-30.28L254.20-30.28L254.20-30.28Q255.74-30.28 256.68-29.35L256.68-29.35L256.68-10.12L256.68-10.12Q256.68-6.30 258.15-4.36L258.15-4.36L258.15-4.36Q259.63-2.41 262.17-2.41L262.17-2.41L262.17-2.41Q264.72-2.41 266.93-5.49L266.93-5.49L266.93-5.49Q269.14-8.58 269.14-15.48L269.14-15.48L269.14-15.48Q269.27-15.88 270.14-15.88L270.14-15.88L270.14-15.88Q271.35-15.88 271.35-12.33L271.35-12.33L271.35-12.33Q271.35-7.17 268.54-3.48L268.54-3.48L268.54-3.48Q265.72 0.20 261.37 0.20L261.37 0.20L261.37 0.20Q255.94 0.20 253.29-3.02L253.29-3.02L253.29-3.02Q250.65-6.23 250.65-12.13L250.65-12.13L250.65-26.20ZM305.52-15.88L305.52-15.88L305.52-15.88Q306.73-15.88 306.73-12.33L306.73-12.33L306.73-12.33Q306.73-6.63 304.28-3.22L304.28-3.22L304.28-3.22Q301.84 0.20 297.15 0.20L297.15 0.20L297.15 0.20Q292.46 0.20 289.94-3.02L289.94-3.02L289.94-3.02Q287.43-6.23 287.43-12.13L287.43-12.13L287.43-19.97L287.43-19.97Q287.43-27.94 283.41-27.94L283.41-27.94L283.41-27.94Q279.86-27.94 277.58-24.32L277.58-24.32L277.58-24.32Q275.30-20.70 275.30-12.19L275.30-12.19L275.30-0.74L275.30-0.74Q274.63 0.20 272.96 0.20L272.96 0.20L272.96 0.20Q271.28 0.20 270.28-0.84L270.28-0.84L270.28-0.84Q269.27-1.88 269.27-3.89L269.27-3.89L269.27-29.35L269.27-29.35Q269.94-30.28 271.82-30.28L271.82-30.28L271.82-30.28Q275.30-30.28 275.30-25.26L275.30-25.26L275.30-25.26Q278.12-30.28 284.21-30.28L284.21-30.28L284.21-30.28Q288.57-30.28 291.15-27.54L291.15-27.54L291.15-27.54Q293.73-24.79 293.73-19.63L293.73-19.63L293.73-10.12L293.73-10.12Q293.73-6.30 294.93-4.36L294.93-4.36L294.93-4.36Q296.14-2.41 298.52-2.41L298.52-2.41L298.52-2.41Q300.90-2.41 302.71-5.39L302.71-5.39L302.71-5.39Q304.52-8.38 304.52-15.48L304.52-15.48L304.52-15.48Q304.58-15.88 305.52-15.88ZM324.35-15.88L324.35-15.88L324.35-15.88Q325.55-15.88 325.55-12.33L325.55-12.33L325.55-12.33Q325.55-7.17 322.74-3.48L322.74-3.48L322.74-3.48Q319.93 0.20 315.57 0.20L315.57 0.20L315.57 0.20Q310.14 0.20 307.46-3.02L307.46-3.02L307.46-3.02Q304.78-6.23 304.78-12.13L304.78-12.13L304.78-37.32L304.78-37.32Q304.78-45.96 306.59-49.98L306.59-49.98L306.59-49.98Q308.40-54.00 312.96-54.00L312.96-54.00L312.96-54.00Q319.59-54.00 319.59-45.02L319.59-45.02L319.59-45.02Q319.59-38.26 316.94-34.17L316.94-34.17L316.94-34.17Q314.30-30.08 310.88-28.07L310.88-28.07L310.88-10.12L310.88-10.12Q310.88-6.30 312.35-4.36L312.35-4.36L312.35-4.36Q313.83-2.41 316.37-2.41L316.37-2.41L316.37-2.41Q318.92-2.41 321.13-5.49L321.13-5.49L321.13-5.49Q323.34-8.58 323.34-15.48L323.34-15.48L323.34-15.48Q323.48-15.88 324.35-15.88ZM316.71-44.96L316.71-44.96L316.71-44.96Q316.71-51.39 313.49-51.39L313.49-51.39L313.49-51.39Q312.69-51.39 312.25-50.85L312.25-50.85L312.25-50.85Q311.82-50.32 311.48-48.17L311.48-48.17L311.48-48.17Q310.88-44.89 310.88-30.89L310.88-30.89L310.88-30.89Q316.71-35.11 316.71-44.96ZM343.24-28.34L343.24-28.34L343.24-28.34Q344.11-30.28 346.02-30.28L346.02-30.28L346.02-30.28Q347.93-30.28 348.87-29.35L348.87-29.35L348.87-10.12L348.87-10.12Q348.87-6.30 350.07-4.36L350.07-4.36L350.07-4.36Q351.28-2.41 353.36-2.41L353.36-2.41L353.36-2.41Q359.66-2.41 359.66-15.48L359.66-15.48L359.66-15.48Q359.72-15.88 360.66-15.88L360.66-15.88L360.66-15.88Q361.87-15.88 361.87-12.33L361.87-12.33L361.87-12.33Q361.87-6.63 359.42-3.22L359.42-3.22L359.42-3.22Q356.98 0.20 352.55 0.20L352.55 0.20L352.55 0.20Q345.79 0.20 343.58-5.76L343.58-5.76L343.58-5.76Q342.30-3.02 340.09-1.41L340.09-1.41L340.09-1.41Q337.88 0.20 335.07 0.20L335.07 0.20L335.07 0.20Q323.34 0.20 323.34-15.14L323.34-15.14L323.34-15.14Q323.34-22.91 326.99-26.60L326.99-26.60L326.99-26.60Q330.64-30.28 336.68-30.28L336.68-30.28L336.68-30.28Q341.30-30.28 343.24-28.34ZM330.64-6.90L330.64-6.90L330.64-6.90Q331.58-3.95 332.79-3.18L332.79-3.18L332.79-3.18Q334.00-2.41 336.00-2.41L336.00-2.41L336.00-2.41Q338.01-2.41 340.39-4.92L340.39-4.92L340.39-4.92Q342.77-7.44 342.77-11.46L342.77-11.46L342.77-20.64L342.77-20.64Q342.77-23.79 341.13-25.73L341.13-25.73L341.13-25.73Q339.49-27.67 337.45-27.67L337.45-27.67L337.45-27.67Q335.40-27.67 334.20-27.27L334.20-27.27L334.20-27.27Q332.99-26.87 331.92-25.59L331.92-25.59L331.92-25.59Q329.71-23.18 329.71-15.14L329.71-15.14L329.71-15.14Q329.71-9.85 330.64-6.90ZM396.04-15.88L396.04-15.88L396.04-15.88Q397.24-15.88 397.24-12.33L397.24-12.33L397.24-12.33Q397.24-6.63 394.80-3.22L394.80-3.22L394.80-3.22Q392.35 0.20 387.66 0.20L387.66 0.20L387.66 0.20Q382.97 0.20 380.46-3.02L380.46-3.02L380.46-3.02Q377.95-6.23 377.95-12.13L377.95-12.13L377.95-19.97L377.95-19.97Q377.95-27.94 373.93-27.94L373.93-27.94L373.93-27.94Q370.38-27.94 368.10-24.32L368.10-24.32L368.10-24.32Q365.82-20.70 365.82-12.19L365.82-12.19L365.82-0.74L365.82-0.74Q365.15 0.20 363.47 0.20L363.47 0.20L363.47 0.20Q361.80 0.20 360.79-0.84L360.79-0.84L360.79-0.84Q359.79-1.88 359.79-3.89L359.79-3.89L359.79-29.35L359.79-29.35Q360.46-30.28 362.34-30.28L362.34-30.28L362.34-30.28Q365.82-30.28 365.82-25.26L365.82-25.26L365.82-25.26Q368.63-30.28 374.73-30.28L374.73-30.28L374.73-30.28Q379.09-30.28 381.67-27.54L381.67-27.54L381.67-27.54Q384.24-24.79 384.24-19.63L384.24-19.63L384.24-10.12L384.24-10.12Q384.24-6.30 385.45-4.36L385.45-4.36L385.45-4.36Q386.66-2.41 389.04-2.41L389.04-2.41L389.04-2.41Q391.41-2.41 393.22-5.39L393.22-5.39L393.22-5.39Q395.03-8.38 395.03-15.48L395.03-15.48L395.03-15.48Q395.10-15.88 396.04-15.88ZM395.17-15.54L395.17-15.54L395.17-15.54Q395.17-23.25 398.82-26.77L398.82-26.77L398.82-26.77Q402.47-30.28 408.50-30.28L408.50-30.28L408.50-30.28Q412.38-30.28 414.66-28.74L414.66-28.74L414.66-37.86L414.66-37.86Q414.66-46.30 416.37-50.15L416.37-50.15L416.37-50.15Q418.08-54.00 422.77-54.00L422.77-54.00L422.77-54.00Q425.32-54.00 426.72-51.86L426.72-51.86L426.72-51.86Q428.13-49.71 428.13-45.76L428.13-45.76L428.13-45.76Q428.13-38.59 420.69-31.16L420.69-31.16L420.69-10.12L420.69-10.12Q420.69-6.30 422.00-4.36L422.00-4.36L422.00-4.36Q423.31-2.41 425.45-2.41L425.45-2.41L425.45-2.41Q427.59-2.41 429.57-5.06L429.57-5.06L429.57-5.06Q431.55-7.71 431.55-13.47L431.55-13.47L431.55-13.47Q431.55-14.74 431.48-15.48L431.48-15.48L431.48-15.48Q431.55-15.88 432.48-15.88L432.48-15.88L432.48-15.88Q433.69-15.88 433.69-12.33L433.69-12.33L433.69-12.33Q433.69-6.77 431.18-3.28L431.18-3.28L431.18-3.28Q428.67 0.20 424.71 0.20L424.71 0.20L424.71 0.20Q417.54 0.20 415.33-6.10L415.33-6.10L415.33-6.10Q414.06-3.28 411.85-1.57L411.85-1.57L411.85-1.57Q409.64 0.13 406.89 0.13L406.89 0.13L406.89 0.13Q395.17 0.13 395.17-15.54ZM407.56-2.48L407.56-2.48L407.56-2.48Q410.04-2.48 412.28-5.19L412.28-5.19L412.28-5.19Q414.53-7.91 414.53-12.13L414.53-12.13L414.53-20.70L414.53-20.70Q414.53-23.99 412.95-25.83L412.95-25.83L412.95-25.83Q411.38-27.67 409.27-27.67L409.27-27.67L409.27-27.67Q407.16-27.67 405.99-27.34L405.99-27.34L405.99-27.34Q404.81-27.00 403.67-25.86L403.67-25.86L403.67-25.86Q401.53-23.65 401.53-15.54L401.53-15.54L401.53-15.54Q401.53-7.37 403.41-4.82L403.41-4.82L403.41-4.82Q405.08-2.48 407.56-2.48ZM422.84-51.39L422.84-51.39L422.84-51.39Q421.43-51.39 421.06-48.27L421.06-48.27L421.06-48.27Q420.69-45.16 420.69-34.37L420.69-34.37L420.69-34.37Q425.25-40.27 425.25-45.83L425.25-45.83L425.25-45.83Q425.25-51.39 422.84-51.39ZM489.64-6.43L489.64-6.43L489.64-6.43Q493.39-4.56 495.90-4.56L495.90-4.56L495.90-4.56Q498.41-4.56 500.15-5.03L500.15-5.03L500.15-5.03Q500.96-4.82 501.63-4.12L501.63-4.12L501.63-4.12Q502.30-3.42 502.30-2.24L502.30-2.24L502.30-2.24Q502.30-1.07 500.82 0.07L500.82 0.07L500.82 0.07Q499.35 1.21 495.70 1.21L495.70 1.21L495.70 1.21Q492.05 1.21 486.82-1.68L486.82-1.68L486.82-1.68Q481.93 3.55 473.66 3.55L473.66 3.55L473.66 3.55Q465.38 3.55 460.32-0.13L460.32-0.13L460.32-0.13Q455.26-3.82 455.26-9.78L455.26-9.78L455.26-9.78Q455.26-15.68 458.61-19.03L458.61-19.03L458.61-19.03Q461.50-21.78 465.98-23.99L465.98-23.99L465.98-23.99Q462.17-31.22 462.17-37.19L462.17-37.19L462.17-37.19Q462.17-41.54 464.58-44.76L464.58-44.76L464.58-44.76Q467.39-48.58 473.76-48.58L473.76-48.58L473.76-48.58Q483.20-48.58 483.34-37.99L483.34-37.99L483.34-37.99Q483.34-31.96 480.19-28.54L480.19-28.54L480.19-28.54Q477.44-25.53 473.15-22.91L473.15-22.91L473.15-22.91Q477.71-14.94 484.88-9.45L484.88-9.45L484.88-9.45Q485.21-11.39 485.21-14.04L485.21-14.04L485.21-14.04Q485.21-16.68 484.61-18.36L484.61-18.36L484.61-18.36Q485.41-18.76 486.59-18.76L486.59-18.76L486.59-18.76Q487.76-18.76 488.56-18.29L488.56-18.29L488.56-18.29Q489.37-17.82 490.04-16.31L490.04-16.31L490.04-16.31Q490.71-14.81 490.71-12.06L490.71-12.06L490.71-12.06Q490.71-9.31 489.64-6.43ZM468.26-20.03L468.26-20.03Q464.71-17.82 462.80-15.31L462.80-15.31L462.80-15.31Q460.89-12.80 460.89-9.04L460.89-9.04L460.89-9.04Q460.89-5.29 464.01-2.35L464.01-2.35L464.01-2.35Q467.12 0.60 472.82 0.60L472.82 0.60L472.82 0.60Q480.26 0.60 483.07-4.09L483.07-4.09L483.07-4.09Q474.36-10.32 468.26-20.03L468.26-20.03ZM478.78-37.75L478.78-37.75L478.78-37.75Q478.78-41.54 477.58-43.62L477.58-43.62L477.58-43.62Q476.37-45.69 473.76-45.69L473.76-45.69L473.76-45.69Q471.14-45.69 469.84-43.32L469.84-43.32L469.84-43.32Q468.53-40.94 468.53-36.65L468.53-36.65L468.53-36.65Q468.53-32.36 471.21-26.60L471.21-26.60L471.21-26.60Q474.83-28.61 476.81-31.29L476.81-31.29L476.81-31.29Q478.78-33.97 478.78-37.75ZM535.73-35.91L535.73-35.91L535.73-35.91Q535.73-34.64 536.13-33.43L536.13-33.43L536.13-33.43Q535.73-32.63 534.32-32.63L534.32-32.63L534.32-32.63Q532.92-32.63 531.91-33.63L531.91-33.63L531.91-33.63Q530.91-34.64 530.91-36.31L530.91-36.31L530.91-36.31Q530.91-40.13 534.16-43.38L534.16-43.38L534.16-43.38Q537.41-46.63 542.13-48.34L542.13-48.34L542.13-48.34Q546.85-50.05 551.68-50.05L551.68-50.05L551.68-50.05Q574.19-50.05 574.19-33.90L574.19-33.90L574.19-33.90Q574.19-29.68 571.64-26.36L571.64-26.36L571.64-26.36Q569.10-23.05 565.71-21.51L565.71-21.51L565.71-21.51Q562.33-19.97 559.11-19.97L559.11-19.97L559.11-19.97Q562.87-19.97 565.78-18.29L565.78-18.29L565.78-18.29Q568.70-16.62 570.54-13.94L570.54-13.94L570.54-13.94Q572.38-11.26 573.96-8.01L573.96-8.01L573.96-8.01Q575.53-4.76 577.07-1.47L577.07-1.47L577.07-1.47Q578.61 1.81 580.42 4.49L580.42 4.49L580.42 4.49Q582.23 7.17 585.08 8.84L585.08 8.84L585.08 8.84Q587.92 10.52 591.61 10.52L591.61 10.52L591.61 10.52Q593.28 10.52 594.36 9.85L594.36 9.85L594.36 9.85Q595.36 9.92 595.36 10.99L595.36 10.99L595.36 10.99Q595.36 13.27 590.67 13.27L590.67 13.27L590.67 13.27Q585.98 13.27 582.30 11.52L582.30 11.52L582.30 11.52Q578.61 9.78 576.33 6.97L576.33 6.97L576.33 6.97Q574.06 4.15 572.21 0.77L572.21 0.77L572.21 0.77Q570.37-2.61 568.76-5.96L568.76-5.96L568.76-5.96Q567.15-9.31 565.38-12.13L565.38-12.13L565.38-12.13Q563.60-14.94 560.86-16.68L560.86-16.68L560.86-16.68Q558.11-18.43 554.56-18.43L554.56-18.43L554.56-18.43Q552.82-18.43 552.82-20.30L552.82-20.30L552.82-20.30Q552.82-21.11 553.35-21.51L553.35-21.51L553.35-21.51Q553.89-21.91 554.56-21.91L554.56-21.91L554.56-21.91Q560.79-21.91 564.41-25.56L564.41-25.56L564.41-25.56Q568.03-29.21 568.03-33.90L568.03-33.90L568.03-33.90Q568.03-40.47 563.60-43.62L563.60-43.62L563.60-43.62Q559.18-46.77 552.58-46.77L552.58-46.77L552.58-46.77Q545.98-46.77 540.86-43.65L540.86-43.65L540.86-43.65Q535.73-40.54 535.73-35.91ZM543.50-37.86L543.50-37.86Q543.50-39.87 544.51-40.90L544.51-40.90L544.51-40.90Q545.51-41.94 546.92-41.94L546.92-41.94L546.92-41.94Q548.33-41.94 549.67-41.00L549.67-41.00L549.67-11.46L549.67-11.46Q549.67-4.42 547.02-0.27L547.02-0.27L547.02-0.27Q544.37 3.89 539.05 3.89L539.05 3.89L539.05 3.89Q533.72 3.89 531.04 1.44L531.04 1.44L531.04 1.44Q528.36-1.01 528.36-5.03L528.36-5.03L528.36-5.03Q528.36-10.18 531.71-10.18L531.71-10.18L531.71-10.18Q532.52-10.18 533.12-9.78L533.12-9.78L533.12-9.78Q533.72-9.38 534.12-8.64L534.12-8.64L534.12-8.64Q533.59-7.24 533.59-4.49L533.59-4.49L533.59-4.49Q533.59-1.74 535.03-0.30L535.03-0.30L535.03-0.30Q536.47 1.14 538.68 1.14L538.68 1.14L538.68 1.14Q543.50 1.14 543.50-7.44L543.50-7.44L543.50-37.86ZM597.71-26.20L597.71-26.20Q597.71-28.21 598.85-29.25L598.85-29.25L598.85-29.25Q599.99-30.28 601.59-30.28L601.59-30.28L601.59-30.28Q603.20-30.28 604.14-29.35L604.14-29.35L604.14-10.12L604.14-10.12Q604.14-6.30 605.35-4.36L605.35-4.36L605.35-4.36Q606.55-2.41 608.63-2.41L608.63-2.41L608.63-2.41Q610.70-2.41 612.65-4.82L612.65-4.82L612.65-4.82Q614.93-7.71 614.93-15.48L614.93-15.48L614.93-15.48Q614.99-15.88 615.93-15.88L615.93-15.88L615.93-15.88Q617.14-15.88 617.14-12.33L617.14-12.33L617.14-12.33Q617.14-6.63 614.69-3.22L614.69-3.22L614.69-3.22Q612.25 0.20 607.82 0.20L607.82 0.20L607.82 0.20Q600.79 0.20 598.58-6.16L598.58-6.16L598.58-6.16Q595.96 0.20 589.00 0.20L589.00 0.20L589.00 0.20Q584.84 0.20 582.30-2.31L582.30-2.31L582.30-2.31Q579.75-4.82 579.75-9.51L579.75-9.51L579.75-26.20L579.75-26.20Q579.75-28.21 580.76-29.25L580.76-29.25L580.76-29.25Q581.76-30.28 583.30-30.28L583.30-30.28L583.30-30.28Q584.84-30.28 585.78-29.35L585.78-29.35L585.78-10.12L585.78-10.12Q585.78-2.14 589.80-2.14L589.80-2.14L589.80-2.14Q592.82-2.14 595.26-5.76L595.26-5.76L595.26-5.76Q597.71-9.38 597.71-15.95L597.71-15.95L597.71-26.20ZM627.39-13.47L627.39-13.47Q624.71-14.41 622.06-15.44L622.06-15.44L622.06-15.44Q619.41-16.48 617.61-18.43L617.61-18.43L617.61-18.43Q615.80-20.37 615.80-23.42L615.80-23.42L615.80-23.42Q615.80-26.46 618.61-28.37L618.61-28.37L618.61-28.37Q621.42-30.28 626.82-30.28L626.82-30.28L626.82-30.28Q632.21-30.28 635.26-28.41L635.26-28.41L635.26-28.41Q638.31-26.53 638.31-24.05L638.31-24.05L638.31-24.05Q638.31-22.85 637.40-22.11L637.40-22.11L637.40-22.11Q636.50-21.37 635.63-21.37L635.63-21.37L635.63-21.37Q633.95-21.37 633.42-22.18L633.42-22.18L633.42-22.18Q633.82-22.65 633.82-24.02L633.82-24.02L633.82-24.02Q633.82-25.39 631.74-26.53L631.74-26.53L631.74-26.53Q629.67-27.67 627.12-27.67L627.12-27.67L627.12-27.67Q624.57-27.67 622.90-26.73L622.90-26.73L622.90-26.73Q621.22-25.80 621.22-23.89L621.22-23.89L621.22-23.89Q621.22-21.98 623.13-20.57L623.13-20.57L623.13-20.57Q625.04-19.16 627.76-18.22L627.76-18.22L627.76-18.22Q630.47-17.29 633.18-16.21L633.18-16.21L633.18-16.21Q635.90-15.14 637.81-13.17L637.81-13.17L637.81-13.17Q639.72-11.19 639.72-8.31L639.72-8.31L639.72-8.31Q639.72-4.02 636.00-1.91L636.00-1.91L636.00-1.91Q632.28 0.20 626.22 0.20L626.22 0.20L626.22 0.20Q620.15 0.20 616.37-3.32L616.37-3.32L616.37-3.32Q612.58-6.83 612.58-12.06L612.58-12.06L612.58-12.06Q612.58-13.94 613.32-15.01L613.32-15.01L613.32-15.01Q614.05-16.08 614.99-16.08L614.99-16.08L614.99-16.08Q616.73-16.08 617.00-15.48L617.00-15.48L617.14-15.28L617.14-15.28Q616.73-14.27 616.73-12.80L616.73-12.80L616.73-12.80Q616.73-8.31 619.35-5.36L619.35-5.36L619.35-5.36Q621.96-2.41 626.58-2.41L626.58-2.41L626.58-2.41Q633.69-2.41 633.75-7.44L633.75-7.44L633.75-7.44Q633.75-11.26 627.39-13.47L627.39-13.47ZM656.06-13.47L656.06-13.47Q653.38-14.41 650.74-15.44L650.74-15.44L650.74-15.44Q648.09-16.48 646.28-18.43L646.28-18.43L646.28-18.43Q644.47-20.37 644.47-23.42L644.47-23.42L644.47-23.42Q644.47-26.46 647.29-28.37L647.29-28.37L647.29-28.37Q650.10-30.28 655.49-30.28L655.49-30.28L655.49-30.28Q660.89-30.28 663.94-28.41L663.94-28.41L663.94-28.41Q666.99-26.53 666.99-24.05L666.99-24.05L666.99-24.05Q666.99-22.85 666.08-22.11L666.08-22.11L666.08-22.11Q665.18-21.37 664.30-21.37L664.30-21.37L664.30-21.37Q662.63-21.37 662.09-22.18L662.09-22.18L662.09-22.18Q662.50-22.65 662.50-24.02L662.50-24.02L662.50-24.02Q662.50-25.39 660.42-26.53L660.42-26.53L660.42-26.53Q658.34-27.67 655.80-27.67L655.80-27.67L655.80-27.67Q653.25-27.67 651.57-26.73L651.57-26.73L651.57-26.73Q649.90-25.80 649.90-23.89L649.90-23.89L649.90-23.89Q649.90-21.98 651.81-20.57L651.81-20.57L651.81-20.57Q653.72-19.16 656.43-18.22L656.43-18.22L656.43-18.22Q659.15-17.29 661.86-16.21L661.86-16.21L661.86-16.21Q664.57-15.14 666.48-13.17L666.48-13.17L666.48-13.17Q668.39-11.19 668.39-8.31L668.39-8.31L668.39-8.31Q668.39-4.02 664.67-1.91L664.67-1.91L664.67-1.91Q660.95 0.20 654.89 0.20L654.89 0.20L654.89 0.20Q648.83 0.20 645.04-3.32L645.04-3.32L645.04-3.32Q641.26-6.83 641.26-12.06L641.26-12.06L641.26-12.06Q641.26-13.94 641.99-15.01L641.99-15.01L641.99-15.01Q642.73-16.08 643.67-16.08L643.67-16.08L643.67-16.08Q645.41-16.08 645.68-15.48L645.68-15.48L645.81-15.28L645.81-15.28Q645.41-14.27 645.41-12.80L645.41-12.80L645.41-12.80Q645.41-8.31 648.02-5.36L648.02-5.36L648.02-5.36Q650.64-2.41 655.26-2.41L655.26-2.41L655.26-2.41Q662.36-2.41 662.43-7.44L662.43-7.44L662.43-7.44Q662.43-11.26 656.06-13.47L656.06-13.47ZM672.81-36.85L672.81-36.85L672.81-36.85Q671.68-37.99 671.68-39.66L671.68-39.66L671.68-39.66Q671.68-41.34 672.81-42.51L672.81-42.51L672.81-42.51Q673.95-43.68 675.63-43.68L675.63-43.68L675.63-43.68Q677.30-43.68 678.48-42.51L678.48-42.51L678.48-42.51Q679.65-41.34 679.65-39.66L679.65-39.66L679.65-39.66Q679.65-37.99 678.48-36.85L678.48-36.85L678.48-36.85Q677.30-35.71 675.63-35.71L675.63-35.71L675.63-35.71Q673.95-35.71 672.81-36.85ZM672.55-26.20L672.55-26.20Q672.55-28.21 673.55-29.25L673.55-29.25L673.55-29.25Q674.56-30.28 676.10-30.28L676.10-30.28L676.10-30.28Q677.64-30.28 678.58-29.35L678.58-29.35L678.58-10.12L678.58-10.12Q678.58-6.30 680.05-4.36L680.05-4.36L680.05-4.36Q681.52-2.41 684.07-2.41L684.07-2.41L684.07-2.41Q686.62-2.41 688.83-5.49L688.83-5.49L688.83-5.49Q691.04-8.58 691.04-15.48L691.04-15.48L691.04-15.48Q691.17-15.88 692.04-15.88L692.04-15.88L692.04-15.88Q693.25-15.88 693.25-12.33L693.25-12.33L693.25-12.33Q693.25-7.17 690.44-3.48L690.44-3.48L690.44-3.48Q687.62 0.20 683.27 0.20L683.27 0.20L683.27 0.20Q677.84 0.20 675.19-3.02L675.19-3.02L675.19-3.02Q672.55-6.23 672.55-12.13L672.55-12.13L672.55-26.20ZM711.07-28.34L711.07-28.34L711.07-28.34Q711.94-30.28 713.85-30.28L713.85-30.28L713.85-30.28Q715.76-30.28 716.70-29.35L716.70-29.35L716.70-10.12L716.70-10.12Q716.70-6.30 717.90-4.36L717.90-4.36L717.90-4.36Q719.11-2.41 721.19-2.41L721.19-2.41L721.19-2.41Q727.49-2.41 727.49-15.48L727.49-15.48L727.49-15.48Q727.55-15.88 728.49-15.88L728.49-15.88L728.49-15.88Q729.70-15.88 729.70-12.33L729.70-12.33L729.70-12.33Q729.70-6.63 727.25-3.22L727.25-3.22L727.25-3.22Q724.81 0.20 720.38 0.20L720.38 0.20L720.38 0.20Q713.62 0.20 711.41-5.76L711.41-5.76L711.41-5.76Q710.13-3.02 707.92-1.41L707.92-1.41L707.92-1.41Q705.71 0.20 702.90 0.20L702.90 0.20L702.90 0.20Q691.17 0.20 691.17-15.14L691.17-15.14L691.17-15.14Q691.17-22.91 694.82-26.60L694.82-26.60L694.82-26.60Q698.48-30.28 704.50-30.28L704.50-30.28L704.50-30.28Q709.13-30.28 711.07-28.34ZM698.48-6.90L698.48-6.90L698.48-6.90Q699.41-3.95 700.62-3.18L700.62-3.18L700.62-3.18Q701.83-2.41 703.84-2.41L703.84-2.41L703.84-2.41Q705.85-2.41 708.22-4.92L708.22-4.92L708.22-4.92Q710.60-7.44 710.60-11.46L710.60-11.46L710.60-20.64L710.60-20.64Q710.60-23.79 708.96-25.73L708.96-25.73L708.96-25.73Q707.32-27.67 705.28-27.67L705.28-27.67L705.28-27.67Q703.23-27.67 702.03-27.27L702.03-27.27L702.03-27.27Q700.82-26.87 699.75-25.59L699.75-25.59L699.75-25.59Q697.54-23.18 697.54-15.14L697.54-15.14L697.54-15.14Q697.54-9.85 698.48-6.90ZM758.51-35.18L758.51-35.18L758.51-35.18Q758.51-33.97 759.04-32.76L759.04-32.76L759.04-32.76Q758.44-31.96 757.03-31.96L757.03-31.96L757.03-31.96Q755.63-31.96 754.65-32.96L754.65-32.96L754.65-32.96Q753.68-33.97 753.68-36.25L753.68-36.25L753.68-36.25Q753.68-41.54 756.90-44.86L756.90-44.86L756.90-44.86Q760.12-48.17 765.47-48.17L765.47-48.17L765.47-48.17Q774.32-48.17 775.99-38.53L775.99-38.53L775.99-38.53Q777.47-43.01 780.82-45.69L780.82-45.69L780.82-45.69Q784.17-48.37 788.66-48.37L788.66-48.37L788.66-48.37Q798.57-48.31 801.45-37.52L801.45-37.52L801.45-37.52Q802.79-42.41 806.24-45.39L806.24-45.39L806.24-45.39Q809.69-48.37 814.45-48.37L814.45-48.37L814.45-48.37Q821.42-48.31 824.87-43.11L824.87-43.11L824.87-43.11Q828.32-37.92 828.32-29.21L828.32-29.21L828.32-10.25L828.32-10.25Q828.32-6.37 829.90-4.02L829.90-4.02L829.90-4.02Q831.47-1.68 834.02-1.68L834.02-1.68L834.02-1.68Q840.31-1.68 840.31-14.27L840.31-14.27L840.31-14.27Q840.38-14.67 841.02-14.67L841.02-14.67L841.02-14.67Q841.65-14.67 841.99-14.47L841.99-14.47L841.99-14.47Q842.99-13.74 842.99-11.19L842.99-11.19L842.99-11.19Q842.99-5.56 840.31-2.08L840.31-2.08L840.31-2.08Q837.63 1.41 833.21 1.41L833.21 1.41L833.21 1.41Q826.78 1.41 824.37-3.08L824.37-3.08L824.37-3.08Q822.22-7.17 822.22-14.27L822.22-14.27L822.22-29.21L822.22-29.21Q822.22-45.02 814.45-45.02L814.45-45.02L814.45-45.02Q808.69-45.02 805.57-39.93L805.57-39.93L805.57-39.93Q802.46-34.84 802.46-26.40L802.46-26.40L802.46-3.08L802.46-3.08Q802.46-1.07 801.45-0.03L801.45-0.03L801.45-0.03Q800.45 1.01 798.97 1.01L798.97 1.01L798.97 1.01Q797.50 1.01 796.43 0.07L796.43 0.07L796.43-29.21L796.43-29.21Q796.43-45.02 788.66-45.02L788.66-45.02L788.66-45.02Q782.49-45.02 779.54-39.09L779.54-39.09L779.54-39.09Q776.60-33.16 776.60-23.18L776.60-23.18L776.60-14.61L776.60-14.61Q776.60-6.30 773.95-1.44L773.95-1.44L773.95-1.44Q771.30 3.42 765.98 3.42L765.98 3.42L765.98 3.42Q760.65 3.42 757.97 0.97L757.97 0.97L757.97 0.97Q755.29-1.47 755.29-5.49L755.29-5.49L755.29-5.49Q755.29-10.65 758.64-10.65L758.64-10.65L758.64-10.65Q759.44-10.65 760.05-10.28L760.05-10.28L760.05-10.28Q760.65-9.92 761.05-9.11L761.05-9.11L761.05-9.11Q760.52-7.71 760.52-4.92L760.52-4.92L760.52-4.92Q760.52-2.14 761.96-0.74L761.96-0.74L761.96-0.74Q763.40 0.67 765.61 0.67L765.61 0.67L765.61 0.67Q770.37 0.67 770.37-10.59L770.37-10.59L770.37-36.52L770.37-36.52Q770.37-40.40 768.79-42.75L768.79-42.75L768.79-42.75Q767.22-45.09 764.50-45.09L764.50-45.09L764.50-45.09Q761.79-45.09 760.15-42.91L760.15-42.91L760.15-42.91Q758.51-40.74 758.51-35.18ZM864.00-2.91L864.00-2.91L864.00-2.91Q864.63-2.35 864.63-1.47L864.63-1.47L864.63-1.47Q864.63-0.60 864.03 0L864.03 0L846.01 0L846.01 0Q843.60 0 843.60-1.94L843.60-1.94L843.60-1.94Q843.60-2.81 844.20-3.42L844.20-3.42L851.44-3.48L851.44-43.42L846.01-43.42L846.01-43.42Q843.60-43.42 843.60-45.36L843.60-45.36L843.60-45.36Q843.60-46.16 844.20-46.90L844.20-46.90L862.22-46.90L862.22-46.90Q863.36-46.90 864.00-46.33L864.00-46.33L864.00-46.33Q864.63-45.76 864.63-44.89L864.63-44.89L864.63-44.89Q864.63-44.02 864.03-43.42L864.03-43.42L857.47-43.42L857.47-3.48L862.22-3.48L862.22-3.48Q863.36-3.48 864.00-2.91ZM901.28-10.25L901.28-10.25L901.28-10.25Q901.28-13.47 899.78-15.75L899.78-15.75L899.78-15.75Q898.27-18.02 895.89-19.30L895.89-19.30L895.89-19.30Q893.51-20.57 890.63-21.57L890.63-21.57L890.63-21.57Q887.75-22.58 884.87-23.62L884.87-23.62L884.87-23.62Q881.99-24.66 879.61-26.10L879.61-26.10L879.61-26.10Q877.23-27.54 875.72-30.08L875.72-30.08L875.72-30.08Q874.22-32.63 874.22-36.25L874.22-36.25L874.22-36.25Q874.22-42.48 878.81-46.03L878.81-46.03L878.81-46.03Q883.39-49.58 890.60-49.58L890.60-49.58L890.60-49.58Q897.80-49.58 902.09-46.30L902.09-46.30L902.09-46.30Q906.38-43.01 906.38-39.13L906.38-39.13L906.38-39.13Q906.38-36.45 905.34-35.14L905.34-35.14L905.34-35.14Q904.30-33.84 902.89-33.84L902.89-33.84L902.89-33.84Q900.28-33.84 899.54-34.84L899.54-34.84L899.34-35.18L899.34-35.18Q900.01-36.05 900.01-38.53L900.01-38.53L900.01-38.53Q900.01-42.34 896.79-44.52L896.79-44.52L896.79-44.52Q893.58-46.70 889.32-46.70L889.32-46.70L889.32-46.70Q885.07-46.70 882.59-44.42L882.59-44.42L882.59-44.42Q880.11-42.14 880.11-38.86L880.11-38.86L880.11-38.86Q880.11-35.58 881.62-33.40L881.62-33.40L881.62-33.40Q883.13-31.22 885.54-30.02L885.54-30.02L885.54-30.02Q887.95-28.81 890.87-27.87L890.87-27.87L890.87-27.87Q893.78-26.93 896.69-25.83L896.69-25.83L896.69-25.83Q899.61-24.72 902.02-23.15L902.02-23.15L902.02-23.15Q904.43-21.57 905.94-18.69L905.94-18.69L905.94-18.69Q907.45-15.81 907.45-11.73L907.45-11.73L907.45-11.73Q907.45-4.56 902.36-0.74L902.36-0.74L902.36-0.74Q897.26 3.08 889.59 3.08L889.59 3.08L889.59 3.08Q881.92 3.08 876.26-0.84L876.26-0.84L876.26-0.84Q870.60-4.76 870.60-10.65L870.60-10.65L870.60-10.65Q870.60-13.40 871.67-14.97L871.67-14.97L871.67-14.97Q872.74-16.55 874.22-16.55L874.22-16.55L874.22-16.55Q876.83-16.55 877.57-15.68L877.57-15.68L877.77-15.34L877.77-15.34Q877.16-13.67 877.16-11.26L877.16-11.26L877.16-11.26Q877.16-6.70 880.88-3.28L880.88-3.28L880.88-3.28Q884.60 0.13 890.63 0.13L890.63 0.13L890.63 0.13Q894.99 0.13 898.13-2.91L898.13-2.91L898.13-2.91Q901.28-5.96 901.28-10.25ZM982.09-58.96L982.09-58.96L982.09-58.96Q982.09-59.97 984.06-59.97L984.06-59.97L984.06-59.97Q986.04-59.97 988.12-57.79L988.12-57.79L988.12-57.79Q990.19-55.61 990.19-52.80L990.19-52.80L990.19-52.80Q990.19-42.48 974.85-42.48L974.85-42.48L974.85-42.48Q968.69-42.48 963.46-43.55L963.46-43.55L963.46-11.46L963.46-11.46Q963.46-4.42 960.81-0.27L960.81-0.27L960.81-0.27Q958.17 3.89 952.84 3.89L952.84 3.89L952.84 3.89Q947.51 3.89 944.83 1.44L944.83 1.44L944.83 1.44Q942.15-1.01 942.15-5.03L942.15-5.03L942.15-5.03Q942.15-10.18 945.50-10.18L945.50-10.18L945.50-10.18Q946.31-10.18 946.91-9.78L946.91-9.78L946.91-9.78Q947.51-9.38 947.92-8.64L947.92-8.64L947.92-8.64Q947.38-7.24 947.38-4.49L947.38-4.49L947.38-4.49Q947.38-1.74 948.82-0.30L948.82-0.30L948.82-0.30Q950.26 1.14 952.47 1.14L952.47 1.14L952.47 1.14Q957.09 1.14 957.30-7.44L957.30-7.44L957.30-45.02L957.30-45.02Q952.87-46.30 948.72-48.17L948.72-48.17L948.72-48.17Q944.36-42.95 935.52-42.95L935.52-42.95L935.52-42.95Q931.90-42.95 929.62-44.52L929.62-44.52L929.62-44.52Q927.35-46.10 927.35-49.31L927.35-49.31L927.35-49.31Q927.35-55.74 935.39-55.74L935.39-55.74L935.39-55.74Q941.15-55.74 952.20-51.46L952.20-51.46L952.20-51.46Q956.29-49.92 962.49-48.58L962.49-48.58L962.49-48.58Q968.69-47.23 975.12-47.23L975.12-47.23L975.12-47.23Q981.55-47.23 983.89-48.64L983.89-48.64L983.89-48.64Q986.24-50.05 986.24-52.80L986.24-52.80L986.24-52.80Q986.24-54.47 985.34-55.71L985.34-55.71L985.34-55.71Q984.43-56.95 983.49-57.35L983.49-57.35L982.62-57.75L982.62-57.75Q982.09-58.16 982.09-58.96ZM935.45-46.03L935.45-46.03L935.45-46.03Q942.62-46.03 945.44-49.58L945.44-49.58L945.44-49.58Q938.27-52.73 935.76-52.73L935.76-52.73L935.76-52.73Q933.24-52.73 932.14-51.82L932.14-51.82L932.14-51.82Q931.03-50.92 931.03-49.51L931.03-49.51L931.03-49.51Q931.03-46.03 935.45-46.03ZM1012.44-17.96L1012.44-17.96L1012.44-17.96Q1013.71-17.96 1013.71-15.75L1013.71-15.75L1013.71-15.75Q1013.71-8.31 1008.75-2.55L1008.75-2.55L1008.75-2.55Q1006.34 0.27 1002.39 2.01L1002.39 2.01L1002.39 2.01Q998.43 3.75 993.61 3.75L993.61 3.75L993.61 3.75Q984.90 3.75 979.04-0.34L979.04-0.34L979.04-0.34Q973.17-4.42 973.17-11.79L973.17-11.79L973.17-11.79Q973.17-15.08 974.18-17.62L974.18-17.62L974.18-17.62Q975.18-20.17 976.56-21.57L976.56-21.57L976.56-21.57Q977.93-22.98 979.67-23.92L979.67-23.92L979.67-23.92Q982.62-25.46 985.23-25.46L985.23-25.46L985.23-25.46Q981.62-26.00 979.00-28.68L979.00-28.68L979.00-28.68Q977.80-29.82 976.89-32.09L976.89-32.09L976.89-32.09Q975.99-34.37 975.99-37.32L975.99-37.32L975.99-37.32Q975.99-43.62 980.41-46.93L980.41-46.93L980.41-46.93Q984.83-50.25 992.17-50.25L992.17-50.25L992.17-50.25Q999.51-50.25 1003.22-47.27L1003.22-47.27L1003.22-47.27Q1006.94-44.29 1006.94-40.13L1006.94-40.13L1006.94-40.13Q1006.94-38.46 1005.94-37.45L1005.94-37.45L1005.94-37.45Q1004.93-36.45 1003.93-36.45L1003.93-36.45L1003.93-36.45Q1002.25-36.45 1001.72-37.25L1001.72-37.25L1001.72-37.25Q1002.12-38.26 1002.12-39.73L1002.12-39.73L1002.12-39.73Q1002.12-43.35 999.37-45.16L999.37-45.16L999.37-45.16Q996.62-46.97 992.20-46.97L992.20-46.97L992.20-46.97Q987.78-46.97 984.97-44.52L984.97-44.52L984.97-44.52Q982.15-42.08 982.15-37.32L982.15-37.32L982.15-37.32Q982.15-27.34 995.62-27.34L995.62-27.34L995.62-27.34Q996.36-27.34 996.99-26.90L996.99-26.90L996.99-26.90Q997.63-26.46 997.63-25.59L997.63-25.59L997.63-25.59Q997.63-23.85 995.62-23.85L995.62-23.85L995.62-23.85Q988.45-23.85 983.89-20.90L983.89-20.90L983.89-20.90Q979.34-17.96 979.34-11.83L979.34-11.83L979.34-11.83Q979.34-5.70 983.26-2.65L983.26-2.65L983.26-2.65Q987.18 0.40 994.05 0.40L994.05 0.40L994.05 0.40Q1000.91 0.40 1006.11-4.56L1006.11-4.56L1006.11-4.56Q1011.30-9.51 1011.30-17.49L1011.30-17.49L1011.30-17.49Q1011.43-17.96 1012.44-17.96ZM1065.60-14.77L1065.60-14.77L1065.60-14.77Q1066.24-14.20 1066.24-13.33L1066.24-13.33L1066.24-13.33Q1066.24-12.46 1065.63-11.86L1065.63-11.86L1056.12-11.86L1059.94 0.87L1059.94 0.87Q1060.07 1.34 1060.07 2.08L1060.07 2.08L1060.07 2.08Q1060.07 2.81 1059.14 3.89L1059.14 3.89L1059.14 3.89Q1058.20 4.96 1057.19 4.96L1057.19 4.96L1057.19 4.96Q1055.32 4.96 1054.24 4.02L1054.24 4.02L1049.49-11.86L1032.40-11.86L1029.05-2.75L1029.05-2.75Q1027.31 1.88 1024.03 5.23L1024.03 5.23L1024.03 5.23Q1020.74 8.58 1015.52 8.58L1015.52 8.58L1015.52 8.58Q1011.57 8.58 1009.32 6.50L1009.32 6.50L1009.32 6.50Q1007.08 4.42 1007.08 0.47L1007.08 0.47L1007.08 0.47Q1007.08-3.48 1008.99-6.67L1008.99-6.67L1008.99-6.67Q1010.90-9.85 1014.04-11.66L1014.04-11.66L1014.04-11.66Q1020.34-15.28 1028.11-15.28L1028.11-15.28L1037.90-42.88L1037.90-42.88Q1038.57-44.82 1039.30-45.76L1039.30-45.76L1039.30-45.76Q1037.23-52.73 1037.23-53.43L1037.23-53.43L1037.23-53.43Q1037.23-54.14 1038.20-55.04L1038.20-55.04L1038.20-55.04Q1039.17-55.95 1040.17-55.95L1040.17-55.95L1040.17-55.95Q1042.12-55.95 1043.19-55.01L1043.19-55.01L1055.05-15.28L1063.83-15.34L1063.83-15.34Q1064.96-15.34 1065.60-14.77ZM1015.52 5.76L1015.52 5.76L1015.52 5.76Q1020.54 5.76 1024.23-4.36L1024.23-4.36L1026.84-11.79L1026.84-11.79Q1019.47-11.79 1015.15-8.31L1015.15-8.31L1015.15-8.31Q1010.83-4.82 1010.83 0.87L1010.83 0.87L1010.83 0.87Q1010.83 3.22 1012.14 4.49L1012.14 4.49L1012.14 4.49Q1013.44 5.76 1015.52 5.76ZM1048.42-15.28L1041.85-40.60L1033.68-15.28L1048.42-15.28ZM1076.69-35.18L1076.69-35.18L1076.69-35.18Q1076.69-33.97 1077.23-32.76L1077.23-32.76L1077.23-32.76Q1076.62-31.96 1075.22-31.96L1075.22-31.96L1075.22-31.96Q1073.81-31.96 1072.84-32.96L1072.84-32.96L1072.84-32.96Q1071.87-33.97 1071.87-36.25L1071.87-36.25L1071.87-36.25Q1071.87-41.54 1075.08-44.86L1075.08-44.86L1075.08-44.86Q1078.30-48.17 1083.66-48.17L1083.66-48.17L1083.66-48.17Q1092.50-48.17 1094.18-38.53L1094.18-38.53L1094.18-38.53Q1095.65-43.01 1099.00-45.69L1099.00-45.69L1099.00-45.69Q1102.35-48.37 1106.84-48.37L1106.84-48.37L1106.84-48.37Q1116.76-48.31 1119.64-37.52L1119.64-37.52L1119.64-37.52Q1120.98-42.41 1124.43-45.39L1124.43-45.39L1124.43-45.39Q1127.88-48.37 1132.63-48.37L1132.63-48.37L1132.63-48.37Q1139.60-48.31 1143.05-43.11L1143.05-43.11L1143.05-43.11Q1146.50-37.92 1146.50-29.21L1146.50-29.21L1146.50-10.25L1146.50-10.25Q1146.50-6.37 1148.08-4.02L1148.08-4.02L1148.08-4.02Q1149.65-1.68 1152.20-1.68L1152.20-1.68L1152.20-1.68Q1158.50-1.68 1158.50-14.27L1158.50-14.27L1158.50-14.27Q1158.56-14.67 1159.20-14.67L1159.20-14.67L1159.20-14.67Q1159.84-14.67 1160.17-14.47L1160.17-14.47L1160.17-14.47Q1161.18-13.74 1161.18-11.19L1161.18-11.19L1161.18-11.19Q1161.18-5.56 1158.50-2.08L1158.50-2.08L1158.50-2.08Q1155.82 1.41 1151.39 1.41L1151.39 1.41L1151.39 1.41Q1144.96 1.41 1142.55-3.08L1142.55-3.08L1142.55-3.08Q1140.41-7.17 1140.41-14.27L1140.41-14.27L1140.41-29.21L1140.41-29.21Q1140.41-45.02 1132.63-45.02L1132.63-45.02L1132.63-45.02Q1126.87-45.02 1123.76-39.93L1123.76-39.93L1123.76-39.93Q1120.64-34.84 1120.64-26.40L1120.64-26.40L1120.64-3.08L1120.64-3.08Q1120.64-1.07 1119.64-0.03L1119.64-0.03L1119.64-0.03Q1118.63 1.01 1117.16 1.01L1117.16 1.01L1117.16 1.01Q1115.68 1.01 1114.61 0.07L1114.61 0.07L1114.61-29.21L1114.61-29.21Q1114.61-45.02 1106.84-45.02L1106.84-45.02L1106.84-45.02Q1100.68-45.02 1097.73-39.09L1097.73-39.09L1097.73-39.09Q1094.78-33.16 1094.78-23.18L1094.78-23.18L1094.78-14.61L1094.78-14.61Q1094.78-6.30 1092.13-1.44L1092.13-1.44L1092.13-1.44Q1089.49 3.42 1084.16 3.42L1084.16 3.42L1084.16 3.42Q1078.83 3.42 1076.15 0.97L1076.15 0.97L1076.15 0.97Q1073.47-1.47 1073.47-5.49L1073.47-5.49L1073.47-5.49Q1073.47-10.65 1076.82-10.65L1076.82-10.65L1076.82-10.65Q1077.63-10.65 1078.23-10.28L1078.23-10.28L1078.23-10.28Q1078.83-9.92 1079.24-9.11L1079.24-9.11L1079.24-9.11Q1078.70-7.71 1078.70-4.92L1078.70-4.92L1078.70-4.92Q1078.70-2.14 1080.14-0.74L1080.14-0.74L1080.14-0.74Q1081.58 0.67 1083.79 0.67L1083.79 0.67L1083.79 0.67Q1088.55 0.67 1088.55-10.59L1088.55-10.59L1088.55-36.52L1088.55-36.52Q1088.55-40.40 1086.97-42.75L1086.97-42.75L1086.97-42.75Q1085.40-45.09 1082.69-45.09L1082.69-45.09L1082.69-45.09Q1079.97-45.09 1078.33-42.91L1078.33-42.91L1078.33-42.91Q1076.69-40.74 1076.69-35.18Z" fill="url(#editing-outline-gradient)"></path></g></g><style>text {
  font-size: 64px;
  font-family: Arial Black;
  dominant-baseline: central;
  text-anchor: middle;
}</style></svg>